HIERARCHY
ROOT reference
{
  OFFSET 0 0 0
  CHANNELS 6 Xposition Yposition Zposition Zrotation Xrotation Yrotation
  JOINT Hips
  {
    OFFSET 44.6805 85.9651 -20.1189
    CHANNELS 3 Zrotation Xrotation Yrotation
    JOINT RightUpLeg
    {
      OFFSET -9.20028 -1.61905 0.0313892
      CHANNELS 3 Zrotation Xrotation Yrotation
      JOINT RightLeg
      {
        OFFSET 0.0920446 -41.8676 0.113709
        CHANNELS 3 Zrotation Xrotation Yrotation
        JOINT RightFoot
        {
          OFFSET -0.78009 -42.2818 -0.985537
          CHANNELS 3 Zrotation Xrotation Yrotation
          End Site
          {
            OFFSET 0 -7.69 17.5
          }
        }
      }
    }
    JOINT LeftUpLeg
    {
      OFFSET 9.33559 -1.63058 -0.0435578
      CHANNELS 3 Zrotation Xrotation Yrotation
      JOINT LeftLeg
      {
        OFFSET 0.124601 -41.8685 -0.0153308
        CHANNELS 3 Zrotation Xrotation Yrotation
        JOINT LeftFoot
        {
          OFFSET -0.885525 -42.178 -0.480441
          CHANNELS 3 Zrotation Xrotation Yrotation
          End Site
          {
            OFFSET 0 -7.69 17.5
          }
        }
      }
    }
    JOINT Spine
    {
      OFFSET -0.030151 14.2977 0.0632059
      CHANNELS 3 Zrotation Xrotation Yrotation
      JOINT Spine1
      {
        OFFSET -0.0449239 9.71163 -4.69081e-05
        CHANNELS 3 Zrotation Xrotation Yrotation
        JOINT Spine2
        {
          OFFSET 0.0275009 10.1133 -0.0283136
          CHANNELS 3 Zrotation Xrotation Yrotation
          JOINT Spine3
          {
            OFFSET 0.0288761 9.7229 -0.000806902
            CHANNELS 3 Zrotation Xrotation Yrotation
            JOINT Neck
            {
              OFFSET -0.0518603 10.2949 0.241895
              CHANNELS 3 Zrotation Xrotation Yrotation
              JOINT Head
              {
                OFFSET -0.275401 9.55953 0.0709142
                CHANNELS 3 Zrotation Xrotation Yrotation
                End Site
                {
                  OFFSET 0 15.95 0
                }
              }
            }
            JOINT RightShoulder
            {
              OFFSET -3.17286 6.95881 0.00543218
              CHANNELS 3 Zrotation Xrotation Yrotation
              JOINT RightArm
              {
                OFFSET -12.7612 0.039846 0.0411956
                CHANNELS 3 Zrotation Xrotation Yrotation
                JOINT RightForeArm
                {
                  OFFSET -26.5517 0.0729849 0.08211
                  CHANNELS 3 Zrotation Xrotation Yrotation
                  JOINT RightHand
                  {
                    OFFSET -26.0042 -0.0197864 0.0403594
                    CHANNELS 3 Zrotation Xrotation Yrotation
                    JOINT RightHandThumb1
                    {
                      OFFSET -2.48905 0.190105 3.12053
                      CHANNELS 3 Zrotation Xrotation Yrotation
                      JOINT RightHandThumb2
                      {
                        OFFSET -3.68274 0 0
                        CHANNELS 3 Zrotation Xrotation Yrotation
                        JOINT RightHandThumb3
                        {
                          OFFSET -2.55832 0 0
                          CHANNELS 3 Zrotation Xrotation Yrotation
                          End Site
                          {
                            OFFSET -2.194 0 0
                          }
                        }
                      }
                    }
                    JOINT RightInHandIndex
                    {
                      OFFSET -3.22368 0.508421 1.97842
                      CHANNELS 3 Zrotation Xrotation Yrotation
                      JOINT RightHandIndex1
                      {
                        OFFSET -5.21684 -0.091368 0.999158
                        CHANNELS 3 Zrotation Xrotation Yrotation
                        JOINT RightHandIndex2
                        {
                          OFFSET -3.61937 0 0
                          CHANNELS 3 Zrotation Xrotation Yrotation
                          JOINT RightHandIndex3
                          {
                            OFFSET -2.0521 0 0
                            CHANNELS 3 Zrotation Xrotation Yrotation
                            End Site
                            {
                              OFFSET -1.805 0 0
                            }
                          }
                        }
                      }
                    }
                    JOINT RightInHandMiddle
                    {
                      OFFSET -3.38211 0.517263 0.756737
                      CHANNELS 3 Zrotation Xrotation Yrotation
                      JOINT RightHandMiddle1
                      {
                        OFFSET -5.17411 -0.084 0.313895
                        CHANNELS 3 Zrotation Xrotation Yrotation
                        JOINT RightHandMiddle2
                        {
                          OFFSET -3.94947 0 0
                          CHANNELS 3 Zrotation Xrotation Yrotation
                          JOINT RightHandMiddle3
                          {
                            OFFSET -2.47579 0 0
                            CHANNELS 3 Zrotation Xrotation Yrotation
                            End Site
                            {
                              OFFSET -1.975 0 0
                            }
                          }
                        }
                      }
                    }
                    JOINT RightInHandRing
                    {
                      OFFSET -3.36516 0.537895 -0.128947
                      CHANNELS 3 Zrotation Xrotation Yrotation
                      JOINT RightHandRing1
                      {
                        OFFSET -4.63474 -0.022105 -0.478947
                        CHANNELS 3 Zrotation Xrotation Yrotation
                        JOINT RightHandRing2
                        {
                          OFFSET -3.44238 0 0
                          CHANNELS 3 Zrotation Xrotation Yrotation
                          JOINT RightHandRing3
                          {
                            OFFSET -2.3881 0 0
                            CHANNELS 3 Zrotation Xrotation Yrotation
                            End Site
                            {
                              OFFSET -1.857 0 0
                            }
                          }
                        }
                      }
                    }
                    JOINT RightInHandPinky
                    {
                      OFFSET -3.16105 0.469368 -1.20179
                      CHANNELS 3 Zrotation Xrotation Yrotation
                      JOINT RightHandPinky1
                      {
                        OFFSET -4.14105 -0.022105 -1.09053
                        CHANNELS 3 Zrotation Xrotation Yrotation
                        JOINT RightHandPinky2
                        {
                          OFFSET -2.75653 0 0
                          CHANNELS 3 Zrotation Xrotation Yrotation
                          JOINT RightHandPinky3
                          {
                            OFFSET -1.74189 0 0
                            CHANNELS 3 Zrotation Xrotation Yrotation
                            End Site
                            {
                              OFFSET -1.645 0 0
                            }
                          }
                        }
                      }
                    }
                  }
                }
              }
            }
            JOINT LeftShoulder
            {
              OFFSET 3.22572 6.89245 -0.0537601
              CHANNELS 3 Zrotation Xrotation Yrotation
              JOINT LeftArm
              {
                OFFSET 12.8183 -0.0506887 -0.111983
                CHANNELS 3 Zrotation Xrotation Yrotation
                JOINT LeftForeArm
                {
                  OFFSET 26.4786 -0.0502099 0.0159937
                  CHANNELS 3 Zrotation Xrotation Yrotation
                  JOINT LeftHand
                  {
                    OFFSET 25.8931 -0.161185 0.0946899
                    CHANNELS 3 Zrotation Xrotation Yrotation
                    JOINT LeftHandThumb1
                    {
                      OFFSET 2.48905 0.190105 3.12053
                      CHANNELS 3 Zrotation Xrotation Yrotation
                      JOINT LeftHandThumb2
                      {
                        OFFSET 3.68274 0 0
                        CHANNELS 3 Zrotation Xrotation Yrotation
                        JOINT LeftHandThumb3
                        {
                          OFFSET 2.55832 0 0
                          CHANNELS 3 Zrotation Xrotation Yrotation
                          End Site
                          {
                            OFFSET 2.194 0 0
                          }
                        }
                      }
                    }
                    JOINT LeftInHandIndex
                    {
                      OFFSET 3.22368 0.508421 1.97842
                      CHANNELS 3 Zrotation Xrotation Yrotation
                      JOINT LeftHandIndex1
                      {
                        OFFSET 5.21684 -0.091368 0.999158
                        CHANNELS 3 Zrotation Xrotation Yrotation
                        JOINT LeftHandIndex2
                        {
                          OFFSET 3.61937 0 0
                          CHANNELS 3 Zrotation Xrotation Yrotation
                          JOINT LeftHandIndex3
                          {
                            OFFSET 2.0521 0 0
                            CHANNELS 3 Zrotation Xrotation Yrotation
                            End Site
                            {
                              OFFSET 1.805 0 0
                            }
                          }
                        }
                      }
                    }
                    JOINT LeftInHandMiddle
                    {
                      OFFSET 3.38211 0.517263 0.756737
                      CHANNELS 3 Zrotation Xrotation Yrotation
                      JOINT LeftHandMiddle1
                      {
                        OFFSET 5.17411 -0.084 0.313895
                        CHANNELS 3 Zrotation Xrotation Yrotation
                        JOINT LeftHandMiddle2
                        {
                          OFFSET 3.94947 0 0
                          CHANNELS 3 Zrotation Xrotation Yrotation
                          JOINT LeftHandMiddle3
                          {
                            OFFSET 2.47579 0 0
                            CHANNELS 3 Zrotation Xrotation Yrotation
                            End Site
                            {
                              OFFSET 1.975 0 0
                            }
                          }
                        }
                      }
                    }
                    JOINT LeftInHandRing
                    {
                      OFFSET 3.36516 0.537895 -0.128947
                      CHANNELS 3 Zrotation Xrotation Yrotation
                      JOINT LeftHandRing1
                      {
                        OFFSET 4.63474 -0.022105 -0.478947
                        CHANNELS 3 Zrotation Xrotation Yrotation
                        JOINT LeftHandRing2
                        {
                          OFFSET 3.44238 0 0
                          CHANNELS 3 Zrotation Xrotation Yrotation
                          JOINT LeftHandRing3
                          {
                            OFFSET 2.3881 0 0
                            CHANNELS 3 Zrotation Xrotation Yrotation
                            End Site
                            {
                              OFFSET 1.857 0 0
                            }
                          }
                        }
                      }
                    }
                    JOINT LeftInHandPinky
                    {
                      OFFSET 3.16105 0.469368 -1.20179
                      CHANNELS 3 Zrotation Xrotation Yrotation
                      JOINT LeftHandPinky1
                      {
                        OFFSET 4.14105 -0.022105 -1.09053
                        CHANNELS 3 Zrotation Xrotation Yrotation
                        JOINT LeftHandPinky2
                        {
                          OFFSET 2.75653 0 0
                          CHANNELS 3 Zrotation Xrotation Yrotation
                          JOINT LeftHandPinky3
                          {
                            OFFSET 1.74189 0 0
                            CHANNELS 3 Zrotation Xrotation Yrotation
                            End Site
                            {
                              OFFSET 1.645 0 0
                            }
                          }
                        }
                      }
                    }
                  }
                }
              }
            }
          }
        }
      }
    }
  }
}
MOTION
Frames: 2
Frame Time: 0.00833333
9.000000000000000000e+02 0.000000000000000000e+00 0.000000000000000000e+00 0.000000000000000000e+00 0.000000000000000000e+00 0.000000000000000000e+00 2.256361206300254452e+01 -2.289701477316092948e+01 -1.845239940360970650e+02 4.544577954234651429e+01 -4.702644140810083684e+01 6.263718907432892991e+01 -1.514168171209421665e+01 1.737358753163205094e+01 1.178673709072890396e+01 1.253307029058329292e+01 2.153609059554864924e+00 9.460735814927407716e+01 4.445457494480599792e+01 -2.131973762233770486e+01 3.440717077400852020e+01 2.161315693971168184e+00 2.221202698681565479e+01 2.539861372491735381e+01 -4.040939455434384797e+01 1.640514577256745099e+01 1.395663192388102516e+02 -1.709128009203548970e+01 8.229597996100521229e+00 -1.035432942561741676e+00 -4.311803538729782836e+00 2.430828963666290310e+00 -1.112499692410653385e+00 -7.020065628717880202e+00 4.408684788716488612e+00 -1.981683964683796928e+00 -1.617811462758003138e+00 -4.009117012245040357e+00 7.753618621586598758e-01 -1.799246045841933395e+01 -7.413764673365542990e+01 1.049585381825231991e+02 -2.687379137304255039e+01 1.215285042294489770e+01 3.646055236351673301e+01 4.009506845194489522e+00 -2.038352842925000630e+00 7.537604924114713612e-01 7.783333191917890304e+01 -6.697792969364478211e+00 2.892684772841535334e+01 1.503593512786592896e+02 -8.560485093931711731e+01 3.302234713870547012e+01 -8.861394562022514521e+00 -2.330030738177853422e+01 1.112976455480446170e+01 2.818400000000000105e+01 1.072940000000000005e+01 1.915919999999999845e+01 8.198950389519603004e-16 -4.324280726463142129e-15 -1.000000000000000000e+01 2.780367181161124731e-15 -4.074038973730753982e-15 -1.000000000000000000e+01 -2.060200861082697070e-15 -9.504683802075616660e-16 2.714858198986039243e-15 1.998179999999999978e+01 8.718970000000000331e-01 2.396399999999999864e+00 2.400000000000000000e+01 -2.611003203959561335e-15 -1.775422360988451721e-15 2.000000000000000000e+01 -5.193940562830221556e-15 -8.217027446844795201e-16 -2.060200861082697070e-15 -9.504683802075616660e-16 2.714858198986039243e-15 2.000000000000000000e+01 9.212939566103030533e-16 -2.279990846209115551e-15 2.400000000000000000e+01 -4.837913136814784752e-15 -1.908715966064277095e-14 2.000000000000000000e+01 -1.619447399936864692e-15 6.128875593039077480e-15 -2.060200861082697070e-15 -9.504683802075616660e-16 2.714858198986039243e-15 1.997479999999999833e+01 -1.025649999999999951e+00 -2.819380000000000219e+00 2.400000000000000000e+01 -1.681816126945987413e-15 -1.869135788278672576e-14 2.000000000000000000e+01 2.817157863028785098e-15 1.233895844921788299e-14 -2.060200861082697070e-15 -9.504683802075616660e-16 2.714858198986039243e-15 1.978150000000000119e+01 -3.009479999999999933e+00 -8.305149999999999366e+00 2.400000000000000000e+01 -6.146794154357279403e-15 -2.637280608686651846e-14 2.000000000000000000e+01 -9.347260670763777725e-16 6.510527189055080537e-16 -2.196139647502405268e+01 -2.554959030452617696e+01 -2.188033310545071330e+01 2.784837377769521005e+00 3.736828284154696433e+01 -1.177590237957073072e+02 -5.452291778784875476e+01 3.226289046395802984e+01 -2.711115009286702460e+01 9.445870539054168091e+01 4.390020689620867245e+01 -8.273075905552643050e+00 -2.818400000000000105e+01 1.072940000000000005e+01 -1.915919999999999845e+01 2.815577811536414183e-15 -2.149655854150146208e-16 1.000000000000000000e+01 4.531346732116111843e-15 -2.964774660044255297e-16 1.000000000000000000e+01 -1.540252622976435751e-15 -1.398935732096251708e-15 7.278308765291517983e-15 -1.998179999999999978e+01 8.718970000000000331e-01 -2.396399999999999864e+00 -2.400000000000000000e+01 -3.638646739277848196e-15 9.440026074475099447e-15 -2.000000000000000000e+01 3.937248475921578183e-15 -5.551773344482067923e-15 -1.540252622976435751e-15 -1.398935732096251708e-15 7.278308765291517983e-15 -2.000000000000000000e+01 -1.587059025509141847e-15 -8.614518894088930742e-15 -2.400000000000000000e+01 -9.922580806018780981e-15 3.196247409111843884e-14 -2.000000000000000000e+01 6.107668600714672048e-15 -1.157681070800236392e-15 -1.540252622976435751e-15 -1.398935732096251708e-15 7.278308765291517983e-15 -1.997479999999999833e+01 -1.025649999999999951e+00 2.819380000000000219e+00 -2.400000000000000000e+01 -1.780642526516159123e-16 -9.635828947241472158e-16 -2.000000000000000000e+01 1.586636914536519216e-15 -6.109592639577908399e-15 -1.540252622976435751e-15 -1.398935732096251708e-15 7.278308765291517983e-15 -1.978150000000000119e+01 -3.009479999999999933e+00 8.305149999999999366e+00 -2.400000000000000000e+01 -2.046899624594328535e-15 -1.165337624336012535e-14 -2.000000000000000000e+01 2.838662330211744305e-15 2.494320271376751825e-15
9.000000000000000000e+02 0.000000000000000000e+00 0.000000000000000000e+00 0.000000000000000000e+00 0.000000000000000000e+00 0.000000000000000000e+00 2.252087962571932422e+01 -2.289770788094333298e+01 -1.843500832321433336e+02 4.522442960661144440e+01 -4.712038815008460801e+01 6.248510483428804463e+01 -1.521420030560752679e+01 1.749190730180243492e+01 1.181375111548868162e+01 1.260959985983186016e+01 2.002330374111133793e+00 9.465195859662951250e+01 4.433244645536569095e+01 -2.139049519968746793e+01 3.432530496598330672e+01 2.099182626706256105e+00 2.210737104854318247e+01 2.544056296534867556e+01 -4.026964562478184462e+01 1.641590927452035231e+01 1.395492452438075190e+02 -1.703000475694550531e+01 8.263007921175230308e+00 -1.063472524158055599e+00 -4.296946653052069465e+00 2.432729756626123674e+00 -1.116600390911745899e+00 -6.995811142879548861e+00 4.414413184910904064e+00 -1.985304409954477212e+00 -1.620370386803203333e+00 -3.991640370029196916e+00 7.887989573299727386e-01 -1.826623582159728088e+01 -7.374729423195118727e+01 1.048750293958042903e+02 -2.695580639197383022e+01 1.219044375406026504e+01 3.643619275287576897e+01 4.043319574076084777e+00 -2.088074831514396656e+00 7.405828587168299393e-01 7.781537953141481978e+01 -6.603653497557665730e+00 2.886616086573475570e+01 1.508991360488800524e+02 -8.567194445338282094e+01 3.272701672239733739e+01 -8.881871562064130643e+00 -2.331574637363106817e+01 1.112856556954317355e+01 2.818400000000000105e+01 1.072940000000000005e+01 1.915919999999999845e+01 8.138812265003632506e-16 -4.410331164781005711e-15 -1.000000000000000000e+01 2.726878402189291098e-15 -4.109045250170629085e-15 -1.000000000000000000e+01 -2.013329712848001622e-15 -8.951249527944290546e-16 2.724661375149154006e-15 1.998179999999999978e+01 8.718970000000000331e-01 2.396399999999999864e+00 2.400000000000000000e+01 -2.606427254268317049e-15 -1.702385993891687476e-15 2.000000000000000000e+01 -5.097120099866573116e-15 -2.936841688993076151e-16 -2.013329712848001622e-15 -8.951249527944290546e-16 2.724661375149154006e-15 2.000000000000000000e+01 9.292902293948739875e-16 -2.336611595597321954e-15 2.400000000000000000e+01 -4.811281341991940949e-15 -1.916394225088409135e-14 2.000000000000000000e+01 -1.561343068075374718e-15 6.284494995148815824e-15 -2.013329712848001622e-15 -8.951249527944290546e-16 2.724661375149154006e-15 1.997479999999999833e+01 -1.025649999999999951e+00 -2.819380000000000219e+00 2.400000000000000000e+01 -1.691054730883912800e-15 -1.873570195519971667e-14 2.000000000000000000e+01 2.873661125809472296e-15 1.241477548958877093e-14 -2.013329712848001622e-15 -8.951249527944290546e-16 2.724661375149154006e-15 1.978150000000000119e+01 -3.009479999999999933e+00 -8.305149999999999366e+00 2.400000000000000000e+01 -6.173337136135916285e-15 -2.639040472584677018e-14 2.000000000000000000e+01 -9.125626778709597630e-16 8.843650428559935171e-16 -2.195891690337059288e+01 -2.544779784263043254e+01 -2.188020400355151907e+01 2.733445791814054893e+00 3.735903662908900458e+01 -1.177331391981670521e+02 -5.440378853379381496e+01 3.256803962605469138e+01 -2.691667309331104008e+01 9.503803698089961927e+01 4.347456757878843803e+01 -7.114917302028906931e+00 -2.818400000000000105e+01 1.072940000000000005e+01 -1.915919999999999845e+01 2.919088108398243387e-15 -1.961773339145309950e-16 1.000000000000000000e+01 4.563365804478573002e-15 -2.085187812699200263e-16 1.000000000000000000e+01 -1.572018736909957763e-15 -1.416104800473551820e-15 7.206101704077771683e-15 -1.998179999999999978e+01 8.718970000000000331e-01 -2.396399999999999864e+00 -2.400000000000000000e+01 -3.688731308249800900e-15 9.732026069028044096e-15 -2.000000000000000000e+01 3.929191742461445544e-15 -5.546747082949174822e-15 -1.572018736909957763e-15 -1.416104800473551820e-15 7.206101704077771683e-15 -2.000000000000000000e+01 -1.595174814829894142e-15 -8.475053184220639097e-15 -2.400000000000000000e+01 -1.009195891928273789e-14 3.253197601994622697e-14 -2.000000000000000000e+01 6.132079188146851535e-15 -1.224097113425399750e-15 -1.572018736909957763e-15 -1.416104800473551820e-15 7.206101704077771683e-15 -1.997479999999999833e+01 -1.025649999999999951e+00 2.819380000000000219e+00 -2.400000000000000000e+01 -1.710484824331797005e-16 -7.594258014648931684e-16 -2.000000000000000000e+01 1.617803727184397360e-15 -6.161908584025623695e-15 -1.572018736909957763e-15 -1.416104800473551820e-15 7.206101704077771683e-15 -1.978150000000000119e+01 -3.009479999999999933e+00 8.305149999999999366e+00 -2.400000000000000000e+01 -2.047060150519464659e-15 -1.157833638544588486e-14 -2.000000000000000000e+01 2.817174361100807258e-15 2.434811624739067216e-15
